<?xml version="1.0" standalone="no"?>
<!DOCTYPE svg PUBLIC "-//W3C//DTD SVG 1.1//EN" "http://www.w3.org/Graphics/SVG/1.1/DTD/svg11.dtd" >
<svg xmlns="http://www.w3.org/2000/svg">
<metadata>Generated by IcoMoon</metadata>
<defs>
<font id="qmicon" horiz-adv-x="1024">
<font-face units-per-em="1024" ascent="960" descent="-64" />
<missing-glyph horiz-adv-x="1024" />
<glyph unicode="&#x20;" horiz-adv-x="512" d="" />
<glyph unicode="&#xe900;" glyph-name="atom" d="M976 22.4c-19.2-19.2-38.4-35.2-64-44.8-25.6-12.8-51.2-16-76.8-16-35.2 0-67.2 9.6-96 25.6s-51.2 41.6-70.4 70.4c-16 28.8-25.6 60.8-25.6 96 0 38.4 9.6 73.6 32 105.6l-92.8 76.8c-22.4-12.8-44.8-22.4-67.2-25.6s-44.8 0-67.2 9.6c-28.8 9.6-48 25.6-67.2 48l-105.6-35.2-3.2-3.2c0-9.6 3.2-16 3.2-22.4 0-25.6-6.4-48-19.2-67.2-12.8-22.4-28.8-38.4-51.2-51.2s-44.8-19.2-70.4-19.2c-25.6 0-48 6.4-70.4 19.2s-38.4 28.8-51.2 51.2-12.8 41.6-12.8 67.2c0 25.6 6.4 48 19.2 67.2 12.8 22.4 28.8 38.4 51.2 51.2s44.8 19.2 70.4 19.2 48-6.4 70.4-19.2c22.4-12.8 38.4-32 51.2-51.2l92.8 54.4c-3.2 12.8-6.4 22.4-6.4 35.2 0 28.8 6.4 51.2 19.2 76.8 12.8 22.4 32 41.6 54.4 54.4s48 19.2 76.8 19.2c19.2 0 35.2-3.2 51.2-9.6 3.2 3.2 3.2 3.2 3.2 6.4 12.8 28.8 28.8 57.6 44.8 89.6 3.2 3.2 3.2 9.6 3.2 12.8-19.2 9.6-32 25.6-41.6 41.6-9.6 19.2-16 38.4-16 60.8s6.4 41.6 16 60.8c9.6 19.2 25.6 32 44.8 44.8 19.2 9.6 38.4 16 60.8 16s41.6-6.4 60.8-16c19.2-9.6 32-25.6 44.8-44.8 9.6-19.2 16-38.4 16-60.8s-6.4-41.6-16-60.8c-9.6-19.2-25.6-32-44.8-44.8-19.2-9.6-38.4-16-60.8-16-6.4 0-19.2 0-32 3.2-3.2-3.2-6.4-9.6-9.6-16-6.4-22.4-16-54.4-32-96 0-3.2-3.2-6.4-3.2-9.6 19.2-12.8 32-32 44.8-51.2 9.6-22.4 16-41.6 16-67.2 0-19.2-3.2-41.6-12.8-64l80-99.2c32 25.6 70.4 38.4 115.2 38.4 35.2 0 67.2-9.6 96-25.6s51.2-41.6 70.4-70.4c16-28.8 25.6-60.8 25.6-96 0-12.8-3.2-32-6.4-51.2l-6.4-12.8c0-3.2-3.2-9.6-6.4-12.8l-9.6-19.2h-3.2c-6.4-9.6-9.6-12.8-12.8-16l-3.2-6.4z" />
<glyph unicode="&#xe901;" glyph-name="calendar" d="M953.6 16c0-28.8-6.4-48-19.2-60.8s-32-19.2-60.8-19.2h-723.2c-28.8 0-48 6.4-60.8 19.2s-19.2 32-19.2 60.8v761.6c0 25.6 6.4 48 19.2 60.8s32 19.2 60.8 19.2c9.6 0 12.8-3.2 16-6.4s3.2-9.6 3.2-16c0-25.6 0-51.2 0-76.8 6.4-22.4 12.8-41.6 22.4-51.2 12.8-12.8 28.8-19.2 51.2-19.2 25.6-3.2 48-3.2 70.4 0 19.2 3.2 35.2 9.6 44.8 22.4s16 28.8 16 48v76.8c0 6.4 0 12.8 3.2 16s9.6 6.4 16 6.4c76.8 0 153.6 0 230.4 0 9.6 0 12.8-3.2 16-6.4s3.2-9.6 3.2-16c0-9.6 0-28.8 0-48v-25.6c0-22.4 6.4-41.6 19.2-54.4s28.8-19.2 51.2-22.4c22.4-3.2 44.8-3.2 64 0 22.4 3.2 38.4 9.6 51.2 22.4s19.2 28.8 19.2 51.2c0 25.6 0 51.2 0 76.8 0 9.6 0 12.8 3.2 16s9.6 6.4 16 6.4c25.6 0 44.8-6.4 60.8-19.2 12.8-12.8 19.2-32 19.2-57.6v-764.8zM371.2 246.4c3.2 3.2 6.4 9.6 3.2 19.2 0 41.6 0 83.2 0 124.8 0 9.6 0 16-3.2 19.2s-9.6 6.4-16 3.2c-54.4 0-108.8 0-160 0-9.6 0-12.8 0-16-3.2s-6.4-9.6-6.4-16c0-41.6 0-86.4 0-131.2 0-9.6 0-12.8 6.4-16 3.2-3.2 9.6-3.2 19.2-3.2 12.8 0 28.8 0 51.2 0h51.2c22.4 0 41.6 0 54.4 0 6.4-3.2 12.8 0 16 3.2zM172.8 467.2c0-6.4 0-12.8 3.2-12.8 3.2-6.4 6.4-6.4 16-6.4h166.4c6.4 0 12.8 0 16 3.2s6.4 6.4 6.4 12.8c0 48 0 92.8 0 137.6 0 9.6-6.4 16-16 16h-172.8c-6.4 0-12.8 0-16-3.2s-3.2-6.4-3.2-12.8v-134.4zM377.6 188.8c0 6.4 0 12.8-3.2 16s-9.6 3.2-16 3.2-32 0-54.4 0h-57.6c-25.6 0-41.6 0-54.4 0-6.4 0-12.8 0-12.8-3.2-3.2-3.2-3.2-6.4-3.2-12.8v-44.8c0-38.4 0-67.2 0-89.6 0-6.4 3.2-12.8 6.4-16s9.6-6.4 16-6.4c54.4 0 108.8 0 163.2 0 6.4 0 12.8 0 16 3.2s3.2 9.6 3.2 16c-3.2 48-3.2 89.6-3.2 134.4zM233.6 736c-16 12.8-22.4 25.6-25.6 44.8-6.4 41.6-6.4 80 0 121.6 3.2 19.2 9.6 32 25.6 41.6 12.8 12.8 28.8 16 44.8 16s32-9.6 44.8-22.4c12.8-12.8 19.2-28.8 19.2-44.8 0-6.4 0-19.2 0-35.2v-35.2c0-16 0-28.8 0-38.4 0-19.2-6.4-32-19.2-44.8-12.8-9.6-28.8-16-44.8-19.2-16 0-32 6.4-44.8 16zM614.4 185.6c0 9.6 0 16-3.2 19.2s-9.6 3.2-19.2 3.2c-12.8 0-28.8 0-51.2 0h-54.4c-22.4 0-41.6 0-54.4 0-9.6 0-12.8 0-16-3.2s-3.2-9.6-3.2-16c0-41.6 0-86.4 0-128 0-9.6 0-12.8 3.2-16s9.6-3.2 16-3.2c54.4 0 105.6 0 160 0 9.6 0 12.8 3.2 19.2 6.4 3.2 3.2 6.4 9.6 3.2 19.2-3.2 35.2-3.2 76.8 0 118.4zM416 614.4c-3.2-3.2-3.2-6.4-3.2-12.8 0-44.8 0-89.6 0-134.4 0-6.4 0-12.8 3.2-12.8 0-6.4 6.4-6.4 12.8-6.4 12.8 0 28.8 0 54.4 0h54.4c25.6 0 41.6 0 54.4 0 6.4 0 12.8 0 16 3.2s3.2 6.4 3.2 16c0 19.2 0 48 0 89.6v44.8c0 6.4 0 12.8-3.2 16s-9.6 3.2-16 3.2c-54.4 0-108.8 0-163.2 0-6.4-3.2-9.6-3.2-12.8-6.4zM409.6 262.4c0-9.6 3.2-16 6.4-16 3.2-3.2 9.6-3.2 16-3.2 12.8 0 28.8 0 51.2 0h54.4c25.6 0 41.6 0 54.4 0 6.4 0 12.8 0 16 3.2s3.2 9.6 3.2 16v131.2c0 6.4 0 12.8-3.2 16s-6.4 3.2-16 3.2c-54.4 0-108.8 0-163.2 0-6.4 0-12.8 0-16-3.2s-3.2-9.6-3.2-16c3.2-44.8 3.2-89.6 0-131.2zM646.4 470.4c0-9.6 0-16 3.2-19.2 6.4-3.2 12.8-3.2 22.4-3.2 12.8 0 28.8 0 51.2 0h108.8c6.4 0 12.8 0 16 3.2s3.2 6.4 3.2 12.8c0 44.8 0 89.6 0 131.2 0 9.6-3.2 12.8-6.4 16s-9.6 3.2-16 3.2h-163.2c-6.4 0-12.8 0-16-3.2s-3.2-9.6-3.2-16c3.2-38.4 3.2-83.2 0-124.8zM848 246.4c3.2 3.2 6.4 9.6 6.4 19.2 0 41.6 0 86.4 0 128 0 9.6-3.2 12.8-6.4 16s-9.6 3.2-16 3.2h-163.2c-6.4 0-12.8 0-16-3.2s-3.2-6.4-3.2-16c0-19.2 0-48 0-89.6v-44.8c0-6.4 0-12.8 3.2-12.8 3.2-3.2 6.4-3.2 12.8-3.2 12.8 0 32 0 54.4 0h54.4c22.4 0 41.6 0 54.4 0 9.6-3.2 16 0 19.2 3.2zM851.2 188.8c0 6.4 0 12.8-3.2 12.8-3.2 3.2-9.6 3.2-16 3.2-12.8 0-32 0-54.4 0h-112c-6.4 0-12.8 0-16-3.2s-6.4-6.4-6.4-12.8v-137.6c0-12.8 6.4-16 16-16 57.6 0 112 0 169.6 0 12.8 0 19.2 6.4 19.2 19.2v134.4zM700.8 742.4c-12.8 12.8-19.2 28.8-19.2 48 0 32 0 67.2 0 99.2 0 19.2 6.4 35.2 19.2 48 12.8 16 28.8 22.4 48 22.4s35.2-6.4 48-19.2c12.8-12.8 19.2-28.8 22.4-48 0-9.6 3.2-22.4 0-41.6v-32c0-12.8 0-25.6 0-32 0-19.2-9.6-38.4-22.4-51.2s-28.8-19.2-48-19.2c-19.2 6.4-35.2 12.8-48 25.6z" />
<glyph unicode="&#xe902;" glyph-name="navegation" d="M22.4 832c16 16 35.2 22.4 57.6 22.4h864c22.4 0 41.6-6.4 57.6-22.4s22.4-35.2 22.4-57.6v-28.8c0-22.4-6.4-41.6-22.4-57.6s-35.2-22.4-57.6-22.4h-864c-22.4 0-41.6 6.4-57.6 22.4s-22.4 35.2-22.4 57.6v28.8c0 22.4 6.4 41.6 22.4 57.6zM22.4 377.6c-16 16-22.4 35.2-22.4 57.6v28.8c0 22.4 6.4 41.6 22.4 57.6 16 12.8 35.2 22.4 57.6 22.4h864c22.4 0 41.6-6.4 57.6-22.4s22.4-35.2 22.4-57.6v-28.8c0-22.4-6.4-41.6-22.4-57.6s-35.2-22.4-57.6-22.4h-864c-22.4-3.2-41.6 6.4-57.6 22.4zM22.4 64c-16 16-22.4 35.2-22.4 57.6v28.8c0 22.4 6.4 41.6 22.4 57.6s35.2 22.4 57.6 22.4h864c22.4 0 41.6-6.4 57.6-22.4s22.4-35.2 22.4-57.6v-28.8c0-22.4-6.4-41.6-22.4-57.6s-35.2-22.4-57.6-22.4h-864c-22.4 0-41.6 6.4-57.6 22.4z" />
<glyph unicode="&#xe903;" glyph-name="car-add" d="M857.6 233.6c19.2 44.8 44.8 115.2 83.2 204.8l80 204.8c3.2 3.2 3.2 6.4 3.2 9.6s0 3.2-6.4 6.4c-3.2 0-9.6 3.2-16 3.2h-259.2l-134.4-131.2c-3.2-3.2-9.6-6.4-16-9.6s-12.8-3.2-19.2-3.2c-6.4 0-12.8 0-19.2 3.2s-12.8 6.4-16 9.6v0l-134.4 131.2h-185.6c-6.4 0-12.8 3.2-19.2 6.4-3.2 3.2-6.4 6.4-6.4 12.8l-22.4 108.8c0 6.4-6.4 12.8-9.6 16-6.4 6.4-12.8 6.4-19.2 6.4h-118.4c-6.4 0-12.8-3.2-16-6.4s-6.4-9.6-6.4-16v-12.8c0-6.4 3.2-9.6 6.4-16 3.2-3.2 9.6-6.4 16-6.4h70.4c6.4 0 12.8-3.2 16-6.4 6.4-3.2 9.6-9.6 9.6-16l131.2-636.8c0-6.4 0-12.8-3.2-19.2s-6.4-12.8-9.6-16c-12.8-12.8-19.2-32-19.2-51.2s6.4-35.2 22.4-51.2c16-12.8 32-22.4 51.2-22.4s38.4 6.4 51.2 22.4c16 16 22.4 32 22.4 51.2 0 9.6 0 19.2-3.2 25.6s-3.2 12.8 0 16c3.2 3.2 6.4 6.4 12.8 6.4h361.6c6.4 0 9.6-3.2 12.8-6.4s0-9.6 0-16c-3.2-6.4-3.2-16-3.2-25.6 0-19.2 6.4-35.2 22.4-51.2s32-22.4 51.2-22.4c19.2 0 38.4 6.4 51.2 19.2 16 12.8 22.4 32 22.4 51.2 0 22.4-9.6 41.6-25.6 57.6-12.8 9.6-19.2 19.2-19.2 28.8 0 3.2-3.2 9.6-6.4 12.8s-9.6 3.2-16 3.2h-492.8c-6.4 0-12.8 3.2-16 6.4-6.4 3.2-9.6 9.6-9.6 16l-12.8 60.8c0 6.4 0 12.8 0 16 3.2 3.2 3.2 6.4 6.4 6.4h531.2c6.4 0 12.8 0 16 3.2s6.4 9.6 9.6 16v0zM566.4 585.6l-176 169.6c-3.2 3.2-3.2 6.4-3.2 9.6s0 6.4 3.2 9.6l35.2 35.2c3.2 3.2 6.4 3.2 9.6 3.2s6.4 0 9.6-3.2l89.6-86.4v224c0 3.2 0 6.4 3.2 9.6 3.2 0 6.4 3.2 12.8 3.2h57.6c3.2 0 6.4 0 9.6-3.2s3.2-6.4 3.2-9.6v-217.6l83.2 80c3.2 3.2 6.4 3.2 9.6 3.2s6.4 0 9.6-3.2l35.2-35.2c3.2-3.2 3.2-6.4 3.2-9.6s0-6.4-3.2-9.6l-176-169.6c-3.2-3.2-6.4-3.2-9.6-3.2 0-3.2-3.2 0-6.4 3.2z" />
<glyph unicode="&#xe904;" glyph-name="chat" d="M556.8 134.4c-108.8-19.2-217.6-6.4-320 41.6-3.2 3.2-6.4 3.2-9.6 3.2s-6.4-3.2-9.6-3.2c-60.8-38.4-131.2-64-214.4-73.6 0 0-3.2 0-3.2 0l12.8 22.4c25.6 48 38.4 105.6 35.2 169.6 0 16-3.2 35.2-9.6 51.2-3.2 12.8-6.4 28.8-12.8 51.2l-9.6 35.2c-25.6 112 0 214.4 80 307.2 76.8 86.4 176 134.4 300.8 150.4 121.6 16 236.8-9.6 339.2-73.6 92.8-57.6 150.4-134.4 172.8-227.2 25.6-112 3.2-211.2-73.6-300.8-70.4-80-163.2-131.2-278.4-153.6zM1024 6.4c0-3.2-3.2-3.2-9.6-3.2-9.6 0-28.8 3.2-48 3.2-41.6 9.6-80 22.4-118.4 44.8-3.2 0-9.6 0-16 0-115.2-48-224-41.6-332.8 16-6.4 3.2-12.8 6.4-19.2 12.8 0 0-3.2 3.2-3.2 3.2h19.2c25.6 3.2 44.8 3.2 57.6 6.4 150.4 25.6 262.4 96 342.4 208 28.8 38.4 48 86.4 57.6 137.6 0 3.2 0 6.4 3.2 12.8l12.8-22.4c6.4-12.8 12.8-22.4 16-28.8 28.8-57.6 32-118.4 9.6-182.4-22.4-67.2-19.2-124.8 6.4-176 3.2-3.2 6.4-9.6 12.8-16 3.2-3.2 3.2-6.4 6.4-9.6 3.2 0 3.2-6.4 3.2-6.4z" />
<glyph unicode="&#xe905;" glyph-name="close" d="M896 960c9.6 0 19.2-3.2 28.8-9.6l83.2-83.2c6.4-9.6 9.6-16 9.6-28.8s-3.2-19.2-9.6-28.8l-336-332.8c-6.4-6.4-9.6-16-9.6-28.8 0-9.6 3.2-19.2 9.6-28.8l112-112c99.2-99.2 172.8-172.8 220.8-224 6.4-6.4 12.8-16 12.8-28.8 0-9.6-3.2-19.2-12.8-28.8l-80-83.2c-9.6-3.2-19.2-6.4-28.8-6.4s-19.2 3.2-25.6 12.8l-112 112c-99.2 99.2-172.8 172.8-220.8 224-6.4 6.4-16 12.8-28.8 12.8s-19.2-3.2-25.6-12.8l-329.6-336c-6.4-9.6-16-12.8-25.6-12.8s-19.2 3.2-28.8 12.8l-83.2 83.2c-6.4 6.4-9.6 16-9.6 25.6s3.2 19.2 9.6 28.8l336 332.8c6.4 6.4 9.6 16 9.6 28.8 0 9.6-3.2 19.2-9.6 28.8l-332.8 336c-6.4 6.4-9.6 16-9.6 25.6s3.2 19.2 9.6 28.8c35.2 35.2 64 64 80 83.2 9.6 6.4 19.2 9.6 28.8 9.6s19.2-3.2 25.6-12.8c73.6-73.6 185.6-185.6 332.8-336 6.4-6.4 16-12.8 25.6-12.8s19.2 3.2 28.8 12.8l112 112c99.2 99.2 169.6 176 220.8 224 3.2 9.6 12.8 12.8 22.4 12.8z" />
<glyph unicode="&#xe906;" glyph-name="delete" d="M435.2 873.6c6.4 28.8 9.6 51.2 16 60.8 6.4 12.8 12.8 22.4 22.4 25.6s25.6 3.2 44.8 0c28.8-3.2 48-6.4 57.6-12.8 12.8-3.2 22.4-9.6 28.8-16s9.6-16 9.6-32c0-9.6-3.2-28.8-6.4-54.4l70.4-12.8c70.4-12.8 121.6-22.4 156.8-28.8 19.2-3.2 35.2-6.4 41.6-12.8 12.8-9.6 16-22.4 12.8-41.6s-9.6-28.8-25.6-35.2c-9.6-3.2-25.6 0-44.8 3.2-115.2 19.2-294.4 51.2-528 89.6l-44.8 9.6c-32 6.4-54.4 9.6-70.4 9.6-32 6.4-48 25.6-41.6 54.4 3.2 28.8 22.4 41.6 57.6 35.2 108.8-19.2 188.8-35.2 243.2-41.6zM819.2 675.2c-99.2 0-198.4 0-297.6 0h-105.6c-92.8 0-163.2 0-211.2 0-28.8 0-44.8-3.2-54.4-12.8-6.4-9.6-9.6-25.6-6.4-51.2 28.8-201.6 57.6-406.4 86.4-608 3.2-19.2 6.4-32 12.8-41.6 3.2-9.6 12.8-16 22.4-19.2 6.4-3.2 22.4-6.4 41.6-6.4h425.6c19.2 0 35.2 3.2 48 6.4 9.6 3.2 19.2 12.8 22.4 22.4s9.6 25.6 12.8 48c19.2 160 44.8 355.2 73.6 582.4 3.2 22.4 3.2 41.6 0 51.2s-9.6 19.2-19.2 22.4c-12.8 3.2-28.8 6.4-51.2 6.4zM355.2 44.8c-16-3.2-28.8 3.2-38.4 12.8-6.4 9.6-12.8 22.4-12.8 38.4-6.4 60.8-19.2 156.8-32 281.6l-16 137.6c0 16 0 28.8 6.4 38.4s16 16 28.8 19.2c16 3.2 28.8 0 38.4-9.6s12.8-19.2 12.8-35.2c3.2-38.4 12.8-92.8 19.2-166.4l9.6-83.2c3.2-38.4 12.8-96 19.2-172.8 3.2-19.2 0-32-3.2-41.6-6.4-12.8-16-19.2-32-19.2zM560 96c0-16-3.2-28.8-9.6-38.4s-19.2-16-32-16c-28.8 0-41.6 19.2-41.6 57.6 0 32 0 76.8 0 140.8v137.6c0 60.8 0 108.8 0 137.6 0 19.2 3.2 32 6.4 41.6 6.4 12.8 16 19.2 32 19.2s28.8-6.4 35.2-16c6.4-9.6 9.6-22.4 9.6-38.4 0-96 0-236.8 0-425.6zM780.8 512c-22.4-185.6-41.6-326.4-54.4-419.2 0-16-6.4-28.8-12.8-38.4-9.6-9.6-22.4-12.8-35.2-12.8-16 3.2-25.6 9.6-32 22.4-3.2 9.6-6.4 22.4-3.2 41.6 3.2 22.4 6.4 57.6 12.8 102.4s9.6 80 12.8 102.4c6.4 44.8 16 115.2 25.6 204.8 3.2 19.2 6.4 32 12.8 38.4 6.4 9.6 19.2 16 35.2 16 32 3.2 44.8-19.2 38.4-57.6z" />
<glyph unicode="&#xe907;" glyph-name="download" d="M1024 352v-313.6c0-19.2-6.4-35.2-19.2-51.2-12.8-12.8-28.8-22.4-51.2-22.4h-883.2c-19.2 0-35.2 6.4-51.2 22.4-12.8 12.8-19.2 32-19.2 51.2v313.6h140.8v-240h739.2v240h144zM147.2 524.8c-6.4 6.4-9.6 12.8-9.6 19.2s3.2 12.8 9.6 19.2l70.4 67.2c3.2 6.4 12.8 9.6 19.2 9.6s16-3.2 19.2-9.6l176-169.6v438.4c0 6.4 3.2 12.8 9.6 19.2 3.2 6.4 9.6 9.6 19.2 9.6h115.2c6.4 0 16-3.2 19.2-9.6 6.4-6.4 9.6-12.8 9.6-19.2v-425.6l163.2 156.8c6.4 6.4 12.8 9.6 22.4 9.6s16-3.2 19.2-9.6l70.4-67.2c6.4-6.4 9.6-12.8 9.6-19.2s-3.2-12.8-9.6-19.2l-345.6-332.8c-6.4-6.4-12.8-9.6-19.2-9.6-9.6 0-16 3.2-19.2 9.6l-348.8 332.8z" />
<glyph unicode="&#xe908;" glyph-name="download-file" d="M457.6 960h-332.8c-22.4 0-41.6-6.4-57.6-16-19.2-9.6-32-25.6-41.6-41.6-12.8-19.2-19.2-38.4-19.2-60.8v-710.4c0-19.2 6.4-41.6 16-57.6 9.6-19.2 25.6-32 41.6-41.6 19.2-9.6 38.4-16 57.6-16h454.4l-105.6 102.4h-288c-22.4 0-38.4 6.4-54.4 22.4s-22.4 35.2-22.4 54.4v582.4c0 22.4 6.4 41.6 22.4 57.6s35.2 22.4 54.4 22.4h214.4v-240c0-19.2 19.2-35.2 35.2-35.2h284.8v-80h96c0 0 0 0 3.2 0v166.4c0 22.4-9.6 44.8-35.2 67.2-70.4 60.8-144 121.6-214.4 182.4-32 25.6-67.2 41.6-108.8 41.6v0zM752-57.6l-233.6 227.2c-6.4 3.2-6.4 6.4-6.4 12.8s3.2 9.6 6.4 12.8l48 44.8c3.2 3.2 9.6 6.4 12.8 6.4 6.4 0 9.6-3.2 12.8-6.4l118.4-115.2v297.6c0 6.4 3.2 9.6 6.4 12.8s9.6 6.4 12.8 6.4h76.8c6.4 0 9.6-3.2 12.8-6.4s6.4-9.6 6.4-12.8v-288l108.8 105.6c3.2 3.2 9.6 6.4 12.8 6.4 6.4 0 9.6-3.2 12.8-6.4l48-44.8c3.2-3.2 6.4-9.6 6.4-12.8 0-6.4-3.2-9.6-6.4-12.8l-233.6-227.2c-3.2-3.2-9.6-6.4-12.8-6.4s-6.4 3.2-9.6 6.4v0zM528 665.6c-9.6 0-19.2 3.2-25.6 9.6s-9.6 16-9.6 25.6v156.8l227.2-188.8h-192v-3.2zM409.6 364.8c9.6 0 19.2-3.2 28.8-12.8 6.4-6.4 12.8-16 12.8-28.8v-35.2c0-9.6-3.2-19.2-12.8-28.8-6.4-6.4-16-12.8-28.8-12.8h-192c-9.6 0-19.2 3.2-28.8 12.8-6.4 6.4-12.8 16-12.8 28.8v35.2c0 9.6 3.2 19.2 12.8 28.8 6.4 6.4 16 12.8 28.8 12.8h192zM179.2 499.2c0 9.6 3.2 19.2 12.8 28.8 6.4 6.4 16 12.8 28.8 12.8h387.2c9.6 0 19.2-3.2 28.8-12.8 6.4-6.4 12.8-16 12.8-28.8v-35.2c0-9.6-3.2-19.2-12.8-28.8-6.4-6.4-16-12.8-28.8-12.8h-390.4c-9.6 0-19.2 3.2-28.8 12.8-6.4 6.4-12.8 16-12.8 28.8v35.2z" />
<glyph unicode="&#xe909;" glyph-name="car" d="M848 218.239c-3.2-3.2-9.6-3.2-16-3.2h-534.4c-3.2 0-6.4-3.2-6.4-6.4-3.2-3.2-3.2-9.6 0-16l12.8-60.8c0-6.4 6.4-12.8 9.6-16 6.4-3.2 12.8-6.4 19.2-6.4h489.6c6.4 0 12.8 0 16-3.2s6.4-6.4 6.4-12.8c0-9.6 6.4-19.2 19.2-28.8 19.2-16 25.6-35.2 25.6-57.6 0-19.2-9.6-38.4-22.4-51.2-16-12.8-32-22.4-51.2-19.2-19.2 0-38.4 9.6-51.2 22.4s-22.4 32-22.4 51.2c0 9.6 0 16 3.2 25.6 3.2 6.4 3.2 12.8 0 16s-6.4 6.4-12.8 6.4h-361.6c-6.4 0-9.6-3.2-12.8-6.4s-3.2-9.6 0-16c3.2-6.4 3.2-16 3.2-25.6 0-19.2-6.4-35.2-22.4-51.2s-32-22.4-51.2-22.4-38.4 6.4-51.2 22.4c-16 12.8-22.4 32-22.4 51.2s6.4 35.2 19.2 51.2c3.2 3.2 9.6 9.6 9.6 16 3.2 6.4 3.2 12.8 3.2 19.2l-124.8 633.6c0 6.4-3.2 12.8-9.6 16s-12.8 6.4-19.2 6.4h-70.4c-6.4 0-12.8 3.2-16 6.4s-6.4 9.6-6.4 16v12.8c0 6.4 3.2 9.6 6.4 16 3.2 3.2 9.6 6.4 16 6.4h118.4c6.4 0 12.8-3.2 16-6.4 6.4-3.2 9.6-9.6 9.6-16l25.6-108.8c0-6.4 3.2-12.8 9.6-16s12.8-6.4 19.2-6.4h784c6.4 0 12.8 0 16-3.2s3.2-3.2 3.2-6.4 0-6.4-3.2-9.6l-80-204.8c-35.2-89.6-64-160-83.2-204.8-3.2-3.2-6.4-9.6-9.6-9.6z" />
<glyph unicode="&#xe90a;" glyph-name="eye" d="M483.2 790.4h54.4c3.2 0 6.4-3.2 9.6-3.2 38.4-3.2 76.8-12.8 115.2-25.6 124.8-44.8 236.8-124.8 329.6-240 38.4-48 38.4-99.2 0-147.2-54.4-67.2-118.4-124.8-195.2-172.8-64-41.6-131.2-70.4-195.2-83.2-12.8-3.2-32-6.4-54.4-9.6h-60.8c-3.2 0-6.4 3.2-9.6 3.2-35.2 3.2-67.2 9.6-99.2 22.4-134.4 38.4-249.6 121.6-348.8 243.2-16 19.2-25.6 41.6-28.8 64-3.2 28.8 9.6 60.8 35.2 89.6 54.4 67.2 121.6 124.8 195.2 169.6 67.2 41.6 134.4 70.4 201.6 83.2l51.2 6.4zM297.6 448c0-38.4 9.6-73.6 28.8-105.6s44.8-57.6 76.8-76.8c32-19.2 67.2-28.8 105.6-28.8s73.6 9.6 105.6 28.8c32 19.2 57.6 44.8 76.8 76.8s28.8 67.2 28.8 105.6c0 38.4-9.6 73.6-28.8 105.6s-44.8 57.6-76.8 76.8c-32 19.2-67.2 28.8-105.6 28.8s-73.6-9.6-105.6-28.8c-32-19.2-57.6-44.8-76.8-76.8s-28.8-67.2-28.8-105.6zM553.6 569.6c-22.4-19.2-35.2-35.2-38.4-54.4s0-38.4 12.8-54.4c25.6-38.4 64-41.6 115.2-12.8 3.2-22.4-3.2-44.8-19.2-67.2s-35.2-38.4-57.6-48c-28.8-9.6-54.4-12.8-83.2-3.2-28.8 6.4-51.2 22.4-67.2 48-25.6 16-32 41.6-32 70.4s9.6 54.4 28.8 76.8c16 22.4 38.4 35.2 67.2 44.8 25.6 9.6 51.2 9.6 73.6 0z" />
<glyph unicode="&#xe90b;" glyph-name="facebook" d="M729.6 448h-144v-512h-214.4v512h-96v179.2h99.2v118.4c0 32 6.4 64 16 92.8 12.8 35.2 35.2 64 64 83.2 35.2 25.6 80 38.4 134.4 38.4h156.8v-176h-115.2c-12.8 0-22.4-3.2-28.8-9.6-9.6-9.6-16-22.4-16-38.4v-105.6h160l-16-182.4z" />
<glyph unicode="&#xe90c;" glyph-name="fire" d="M316.8 214.4c-9.6 9.6-16 22.4-22.4 32-9.6 16-16 32-19.2 51.2-6.4 22.4-6.4 44.8-3.2 70.4 3.2 28.8 16 57.6 32 86.4 22.4 41.6 60.8 83.2 112 128 32 28.8 60.8 54.4 83.2 83.2 22.4 25.6 41.6 48 54.4 73.6 12.8 22.4 25.6 44.8 32 64s12.8 38.4 12.8 54.4c0 16 0 28.8 0 44.8 0 9.6-3.2 22.4-6.4 32-3.2 6.4-6.4 12.8-9.6 19.2v6.4l6.4-3.2c6.4-3.2 9.6-9.6 16-16s12.8-16 19.2-25.6c6.4-9.6 12.8-22.4 19.2-35.2 6.4-16 9.6-28.8 12.8-48s3.2-38.4 0-57.6c-3.2-22.4-6.4-44.8-16-70.4s-22.4-54.4-38.4-83.2c-38.4-67.2-54.4-121.6-48-169.6 3.2-19.2 9.6-38.4 19.2-54.4 9.6-12.8 19.2-22.4 35.2-32 9.6-6.4 19.2-12.8 28.8-16l12.8-3.2-9.6 16c-6.4 12.8-9.6 25.6-12.8 38.4-6.4 19.2-9.6 35.2-9.6 54.4 0 32 9.6 60.8 25.6 83.2 22.4 28.8 54.4 54.4 102.4 70.4l-6.4-9.6c-6.4-9.6-9.6-19.2-12.8-32-3.2-16-6.4-32-9.6-48 0-22.4 0-41.6 6.4-64 6.4-32 19.2-64 41.6-99.2l3.2-3.2c25.6-41.6 38.4-92.8 38.4-150.4s-12.8-108.8-41.6-153.6c-32-57.6-80-92.8-144-112 12.8 12.8 22.4 28.8 28.8 48 6.4 16 9.6 32 12.8 51.2 0 12.8 3.2 25.6 3.2 38.4v16l-3.2-16c-3.2-12.8-9.6-22.4-16-32-9.6-12.8-32-28.8-32-19.2 0 60.8-16 131.2-41.6 172.8-19.2 32-41.6 54.4-57.6 73.6-12.8 16-19.2 35.2-25.6 51.2-9.6 12.8-9.6 25.6-9.6 38.4 0 9.6 3.2 16 3.2 22.4l3.2 9.6-3.2-6.4c-6.4-6.4-9.6-12.8-16-19.2-6.4-9.6-9.6-19.2-12.8-32-3.2-16-3.2-28.8 0-44.8 3.2-19.2 12.8-38.4 25.6-60.8s19.2-41.6 22.4-57.6c3.2-16 3.2-28.8-3.2-38.4-3.2-9.6-9.6-16-16-22.4-6.4-3.2-12.8-9.6-19.2-9.6l-9.6-3.2 6.4 16c3.2 12.8 6.4 22.4 9.6 35.2 0 16-3.2 28.8-12.8 41.6-9.6 16-25.6 25.6-48 35.2l3.2-9.6c3.2-6.4 6.4-16 6.4-25.6 0-12.8 0-25.6-3.2-38.4-3.2-16-12.8-35.2-22.4-51.2-12.8-19.2-19.2-44.8-19.2-70.4s6.4-51.2 16-73.6c-38.4 19.2-73.6 44.8-99.2 76.8-22.4 28.8-41.6 60.8-54.4 99.2-9.6 32-16 64-22.4 102.4-3.2 25.6-3.2 51.2-3.2 76.8l3.2 32 9.6-19.2c3.2-16 9.6-32 19.2-44.8 9.6-19.2 19.2-35.2 32-48 16-16 32-25.6 51.2-25.6l-9.6 9.6z" />
<glyph unicode="&#xe90d;" glyph-name="instangram" d="M876.8 918.4c44.8-25.6 80-60.8 105.6-105.6 28.8-44.8 41.6-96 41.6-147.2v-435.2c0-54.4-12.8-102.4-41.6-150.4-25.6-44.8-60.8-80-105.6-105.6s-96-41.6-150.4-41.6h-432c-54.4 0-102.4 12.8-147.2 41.6-44.8 25.6-80 60.8-105.6 105.6-28.8 48-41.6 99.2-41.6 150.4v435.2c0 51.2 12.8 102.4 38.4 147.2s60.8 80 105.6 105.6c48 28.8 96 41.6 150.4 41.6h435.2c51.2 0 102.4-12.8 147.2-41.6zM921.6 665.6c0 35.2-9.6 67.2-25.6 96s-41.6 54.4-70.4 70.4c-28.8 16-60.8 25.6-96 25.6h-435.2c-35.2 0-67.2-9.6-96-25.6-32-16-54.4-41.6-70.4-70.4s-25.6-60.8-25.6-96v-435.2c0-35.2 9.6-67.2 25.6-96s41.6-54.4 70.4-70.4c28.8-16 60.8-25.6 96-25.6h435.2c35.2 0 67.2 9.6 96 25.6s54.4 41.6 70.4 70.4c16 28.8 25.6 60.8 25.6 96v435.2zM646.4 678.4c41.6-22.4 73.6-57.6 96-96 22.4-41.6 35.2-86.4 35.2-134.4s-12.8-92.8-35.2-134.4c-22.4-41.6-57.6-73.6-96-96-41.6-22.4-86.4-35.2-134.4-35.2s-92.8 12.8-134.4 35.2c-41.6 22.4-73.6 57.6-96 96-25.6 41.6-35.2 86.4-35.2 134.4s12.8 92.8 35.2 134.4c25.6 41.6 57.6 73.6 96 96 41.6 22.4 86.4 35.2 131.2 35.2 51.2 0 96-12.8 137.6-35.2zM595.2 307.2c25.6 16 44.8 35.2 60.8 60.8s22.4 51.2 22.4 83.2-6.4 57.6-22.4 83.2-35.2 44.8-60.8 60.8c-25.6 16-51.2 22.4-83.2 22.4-28.8 0-57.6-6.4-83.2-22.4s-44.8-35.2-60.8-60.8-22.4-51.2-22.4-83.2 6.4-57.6 22.4-83.2c16-25.6 35.2-44.8 60.8-60.8s51.2-22.4 83.2-22.4c28.8 0 57.6 6.4 83.2 22.4zM832 771.2c12.8-12.8 19.2-28.8 19.2-51.2 0-19.2-6.4-35.2-19.2-48s-28.8-19.2-48-19.2c-19.2 0-35.2 6.4-51.2 19.2-12.8 12.8-19.2 28.8-19.2 48s6.4 35.2 19.2 51.2 28.8 19.2 51.2 19.2c16 0 32-6.4 48-19.2z" />
<glyph unicode="&#xe90e;" glyph-name="link" d="M572.8 144l-44.8-44.8c-48-51.2-86.4-86.4-112-112-25.6-22.4-51.2-38.4-83.2-44.8s-64-6.4-92.8 0c-32 9.6-60.8 22.4-83.2 48-35.2 32-70.4 67.2-102.4 102.4-22.4 25.6-35.2 51.2-44.8 83.2-6.4 32-6.4 60.8 0 92.8s22.4 57.6 44.8 83.2c22.4 22.4 57.6 57.6 105.6 105.6l83.2 83.2c44.8 44.8 76.8 80 102.4 99.2 16 19.2 41.6 32 70.4 41.6 28.8 6.4 60.8 9.6 89.6 3.2 32-6.4 57.6-19.2 80-38.4 16-16 41.6-38.4 73.6-70.4l16-16c3.2-3.2 6.4-9.6 6.4-12.8 0-6.4-3.2-9.6-6.4-12.8-9.6-9.6-22.4-25.6-44.8-44.8l-22.4-22.4c-3.2-3.2-6.4-6.4-12.8-6.4s-9.6 3.2-12.8 6.4c-16 16-38.4 38.4-70.4 70.4-6.4 9.6-16 12.8-22.4 16-12.8 6.4-25.6 9.6-38.4 6.4s-25.6-6.4-35.2-16c-3.2-3.2-6.4-6.4-9.6-9.6l-259.2-259.2c-9.6-19.2-19.2-38.4-19.2-54.4 0-19.2 9.6-35.2 25.6-51.2 19.2-19.2 44.8-44.8 83.2-80 16-16 32-22.4 48-22.4s35.2 6.4 48 22.4c38.4 38.4 67.2 67.2 86.4 89.6 3.2 3.2 3.2 3.2 6.4 3.2s3.2 0 6.4-3.2c38.4-22.4 83.2-32 131.2-32 0 0 0 0 3.2 0s6.4-3.2 6.4-3.2zM1017.6 723.2c6.4-32 6.4-60.8 0-92.8s-22.4-57.6-44.8-80c-32-32-80-83.2-147.2-147.2l-137.6-137.6c-25.6-22.4-51.2-38.4-83.2-48s-64-9.6-96 0c-32 9.6-60.8 22.4-83.2 48-19.2 16-44.8 44.8-76.8 80-3.2 3.2-3.2 9.6-3.2 12.8 0 6.4 0 9.6 3.2 12.8l64 64c3.2 3.2 9.6 6.4 12.8 6.4 6.4 0 9.6-3.2 12.8-6.4 32-32 57.6-54.4 73.6-70.4 19.2-19.2 41.6-25.6 64-19.2 9.6 3.2 19.2 6.4 28.8 16 92.8 89.6 182.4 179.2 272 272 12.8 12.8 19.2 28.8 19.2 44.8s-6.4 32-22.4 48c-28.8 28.8-57.6 57.6-86.4 86.4-12.8 12.8-28.8 22.4-48 22.4s-32-6.4-48-22.4c-32-28.8-60.8-57.6-89.6-89.6v0c-3.2-3.2-3.2-3.2-6.4-3.2 0 0-3.2 0-6.4 3.2-38.4 22.4-80 32-128 32h-6.4c0 0 0 0 0 3.2l44.8 41.6c48 48 86.4 86.4 108.8 108.8 25.6 22.4 54.4 38.4 83.2 44.8 32 6.4 60.8 6.4 92.8 0 32-9.6 60.8-22.4 83.2-48 28.8-28.8 64-60.8 102.4-102.4 25.6-22.4 38.4-51.2 48-80z" />
<glyph unicode="&#xe90f;" glyph-name="location" d="M489.6-38.4c-25.6 32-48 60.8-64 89.6-80 112-144 217.6-192 320-16 32-28.8 60.8-35.2 83.2-12.8 32-19.2 60.8-25.6 86.4-22.4 115.2 3.2 214.4 80 300.8 73.6 83.2 166.4 121.6 278.4 118.4 51.2-3.2 99.2-16 144-38.4 44.8-25.6 83.2-57.6 115.2-99.2s51.2-86.4 60.8-137.6c12.8-60.8 9.6-121.6-9.6-182.4-32-105.6-89.6-217.6-166.4-336-22.4-35.2-57.6-86.4-105.6-153.6l-48-70.4c-3.2-3.2-3.2-3.2-3.2-3.2s-3.2 0-9.6 6.4c-6.4 0-12.8 6.4-19.2 16zM681.6 608c0 28.8-6.4 57.6-19.2 83.2s-32 48-57.6 64c-25.6 16-51.2 25.6-80 28.8-32 0-64-3.2-89.6-19.2-28.8-12.8-51.2-32-67.2-57.6s-25.6-54.4-25.6-89.6c0-28.8 6.4-57.6 19.2-83.2s35.2-48 57.6-64c25.6-16 51.2-25.6 80-25.6 32 0 60.8 3.2 89.6 19.2 28.8 12.8 48 32 64 57.6 19.2 22.4 28.8 54.4 28.8 86.4z" />
<glyph unicode="&#xe910;" glyph-name="neumatic" d="M608 288v0c44.8 144 28.8 246.4-3.2 339.2-19.2-54.4-19.2-278.4 3.2-339.2zM112 496v0c0 163.2 92.8 460.8 265.6 464-28.8-41.6-70.4-32-137.6-211.2-64-176-57.6-425.6 0-601.6 19.2-51.2 57.6-131.2 92.8-169.6 16-16 25.6-22.4 38.4-41.6-160 12.8-259.2 278.4-259.2 464v96zM323.2 496v0c0-169.6 12.8-377.6 115.2-505.6 35.2-41.6 54.4-51.2 80-54.4h44.8c-208 179.2-211.2 768-41.6 979.2 16 19.2 28.8 28.8 41.6 48-73.6 0-89.6-6.4-121.6-51.2-25.6-32-51.2-80-64-115.2-28.8-76.8-54.4-198.4-54.4-300.8zM214.4 467.2v0c0-147.2 28.8-364.8 128-467.2 38.4-41.6 48-64 121.6-64-12.8 19.2-22.4 22.4-38.4 44.8-156.8 224-153.6 646.4-32 883.2 9.6 22.4 19.2 32 32 51.2 28.8 41.6 25.6 22.4 41.6 44.8h-3.2c-51.2 0-70.4 0-121.6-60.8-22.4-28.8-51.2-76.8-67.2-115.2-35.2-83.2-60.8-204.8-60.8-316.8zM662.4-64h-51.2c-22.4 3.2-41.6 16-60.8 35.2-108.8 115.2-131.2 342.4-131.2 502.4 0 99.2 22.4 224 48 294.4 22.4 57.6 76.8 192 150.4 192 118.4 0 176-70.4 227.2-169.6 64-134.4 67.2-240 67.2-390.4 0-252.8-131.2-438.4-249.6-464zM678.4 755.2c-22.4 0-67.2-70.4-60.8-83.2 19.2-48 99.2-214.4-3.2-428.8 22.4-96 89.6-150.4 131.2 38.4 38.4 156.8 12.8 473.6-67.2 473.6z" />
<glyph unicode="&#xe911;" glyph-name="paper" d="M678.4 876.8c102.4-3.2 201.6-6.4 304-9.6 16 0 25.6-3.2 35.2-12.8 3.2-6.4 6.4-16 6.4-32l-12.8-131.2c-9.6-89.6-22.4-169.6-35.2-240-9.6-54.4-22.4-102.4-32-140.8-12.8-51.2-28.8-96-44.8-137.6-12.8-35.2-32-70.4-51.2-99.2-16-22.4-35.2-41.6-54.4-51.2-22.4-9.6-44.8-16-73.6-16-48 0-118.4 3.2-214.4 3.2l-144 3.2c-22.4 0-54.4 0-99.2 3.2h-51.2c-57.6 3.2-105.6 28.8-144 76.8-28.8 38.4-51.2 83.2-64 134.4-3.2 12.8 0 22.4 6.4 32s16 12.8 28.8 12.8c38.4 0 96-3.2 172.8-3.2l86.4-3.2 278.4-6.4c19.2 3.2 35.2-6.4 44.8-28.8 16-32 32-64 51.2-89.6 12.8-19.2 28.8-35.2 41.6-48 12.8-9.6 22.4-12.8 32-12.8s19.2 6.4 28.8 16c9.6 9.6 19.2 22.4 28.8 38.4 6.4 9.6 12.8 25.6 19.2 41.6 12.8 35.2 28.8 73.6 38.4 115.2 9.6 32 19.2 70.4 28.8 118.4 16 73.6 28.8 153.6 41.6 243.2l12.8 134.4c0 3.2 0 6.4 0 9.6 0 0-3.2 3.2-9.6 3.2l-198.4 6.4-326.4 9.6c-3.2 0-6.4 0-9.6-3.2 0 0-3.2-3.2-3.2-9.6-6.4-76.8-16-144-25.6-201.6-12.8-73.6-28.8-137.6-44.8-198.4l-25.6-70.4c-3.2-3.2-6.4-6.4-9.6-6.4-12.8 0-35.2 0-60.8 0-3.2 0-6.4 0-6.4 3.2 0 0 0 3.2 0 6.4 19.2 41.6 35.2 92.8 51.2 147.2 9.6 38.4 19.2 89.6 32 153.6 9.6 48 16 118.4 25.6 214.4v0c0 12.8 6.4 19.2 12.8 25.6s16 9.6 25.6 9.6l240-6.4c9.6 0 25.6 0 44.8 0l22.4-3.2zM630.4 80c-22.4 28.8-41.6 64-64 105.6-3.2 3.2-6.4 6.4-9.6 6.4l-454.4 9.6c-9.6 0-16 0-16 0s0-6.4 3.2-16c16-32 35.2-54.4 54.4-70.4 22.4-19.2 51.2-28.8 86.4-28.8 60.8 0 150.4 0 268.8-3.2l89.6-3.2h41.6zM585.6 352c-70.4 3.2-124.8 6.4-160 9.6-9.6 0-12.8 6.4-16 16 0 9.6 3.2 16 9.6 22.4 0 0 3.2 0 6.4 0l89.6-3.2c41.6-3.2 73.6-3.2 92.8-6.4h3.2c3.2 0 6.4-3.2 9.6-6.4 3.2-6.4 6.4-12.8 3.2-22.4s-6.4-12.8-12.8-12.8h-12.8c-9.6 0-12.8 3.2-12.8 3.2zM729.6 492.8c-112 3.2-198.4 6.4-252.8 9.6-6.4 0-12.8 0-16 3.2s-6.4 6.4-6.4 12.8 3.2 16 12.8 22.4c3.2 0 6.4 0 9.6 0l137.6-3.2c67.2-3.2 118.4-3.2 150.4-6.4h3.2c9.6 0 12.8-3.2 16-6.4 6.4-6.4 6.4-12.8 6.4-22.4-3.2-9.6-12.8-12.8-22.4-12.8h-22.4c-12.8 3.2-16 3.2-16 3.2zM652.8 640c-16 0-41.6 0-76.8 3.2l-73.6 3.2-12.8 3.2c-6.4 0-9.6 3.2-12.8 6.4s-3.2 9.6-3.2 12.8c0 12.8 6.4 19.2 19.2 19.2h12.8c134.4-6.4 236.8-9.6 304-12.8 6.4 0 12.8-3.2 16-6.4s6.4-6.4 6.4-12.8c0-6.4-3.2-9.6-6.4-16-3.2-3.2-9.6-6.4-16-3.2l-156.8 3.2z" />
<glyph unicode="&#xe912;" glyph-name="phone" d="M384 620.8c-28.8-16-41.6-41.6-44.8-80-3.2-35.2 3.2-73.6 19.2-118.4s38.4-83.2 64-118.4c28.8-38.4 60.8-64 92.8-80 35.2-16 67.2-16 96 0l144-246.4c-25.6-16-48-25.6-64-32-22.4-6.4-41.6-9.6-64-9.6s-44.8 9.6-70.4 22.4c-67.2 38.4-137.6 105.6-208 195.2-67.2 89.6-121.6 182.4-163.2 284.8-44.8 105.6-64 198.4-60.8 275.2 0 25.6 6.4 48 16 67.2 9.6 16 22.4 32 41.6 48 12.8 9.6 32 22.4 57.6 38.4l16-32c70.4-115.2 112-188.8 128-214.4zM441.6 627.2c-6.4-3.2-16-6.4-25.6-3.2s-16 6.4-19.2 16l-131.2 230.4c-6.4 9.6-6.4 16-3.2 25.6s6.4 16 16 19.2l70.4 41.6c6.4 3.2 12.8 3.2 22.4 3.2 9.6-3.2 16-6.4 19.2-16l134.4-233.6c3.2-6.4 6.4-16 3.2-25.6s-6.4-16-16-19.2l-70.4-38.4zM809.6-9.6c-6.4-3.2-16-6.4-25.6-3.2s-16 6.4-19.2 16l-134.4 233.6c-3.2 6.4-6.4 16-3.2 25.6s6.4 16 16 19.2l70.4 38.4c6.4 3.2 16 6.4 25.6 3.2s16-6.4 19.2-16l134.4-233.6c3.2-6.4 6.4-16 3.2-25.6s-6.4-16-16-19.2l-70.4-38.4z" />
<glyph unicode="&#xe913;" glyph-name="search" d="M1024 112c0-16-6.4-28.8-16-38.4l-118.4-118.4c-12.8-12.8-25.6-19.2-41.6-19.2s-28.8 6.4-41.6 19.2l-220.8 240c-57.6-28.8-118.4-44.8-182.4-44.8-73.6 0-140.8 19.2-204.8 54.4-60.8 35.2-108.8 83.2-144 144-38.4 64-54.4 131.2-54.4 204.8s19.2 140.8 54.4 204.8c35.2 60.8 83.2 108.8 144 144 64 38.4 131.2 54.4 204.8 54.4s140.8-19.2 204.8-54.4c60.8-35.2 108.8-83.2 144-144 38.4-64 54.4-131.2 54.4-204.8 0-64-16-124.8-44.8-182.4l240-220.8c16-9.6 22.4-22.4 22.4-38.4zM528 342.4c38.4 22.4 67.2 51.2 89.6 89.6s32 80 32 124.8-9.6 86.4-32 124.8c-22.4 38.4-51.2 67.2-89.6 89.6s-80 32-124.8 32c-44.8 0-86.4-9.6-124.8-32s-64-54.4-86.4-92.8c-22.4-38.4-32-80-32-124.8s9.6-86.4 32-124.8c22.4-38.4 51.2-67.2 89.6-89.6s80-32 124.8-32c41.6 0 83.2 12.8 121.6 35.2z" />
<glyph unicode="&#xe914;" glyph-name="test-bulb" d="M512 960h64c22.4 0 44.8-6.4 60.8-22.4s28.8-32 35.2-54.4c6.4-22.4 3.2-44.8-6.4-64s-25.6-35.2-48-44.8c-3.2 0-6.4-3.2-6.4-3.2 0-3.2 0-3.2 0-6.4v-128c0-3.2 0-6.4 3.2-6.4 0 0 3.2-3.2 6.4-3.2 134.4-48 214.4-137.6 240-272 12.8-60.8 6.4-121.6-12.8-182.4-19.2-57.6-54.4-105.6-99.2-147.2-48-41.6-102.4-67.2-163.2-80-57.6-9.6-115.2-9.6-169.6 9.6-54.4 16-102.4 44.8-144 83.2-41.6 41.6-73.6 89.6-89.6 144-19.2 60.8-22.4 121.6-9.6 182.4s41.6 112 83.2 160c41.6 48 92.8 80 153.6 99.2 3.2 0 6.4 3.2 9.6 6.4-3.2 0-3.2 3.2-3.2 9.6 0 57.6 0 99.2 0 131.2 0 3.2-3.2 6.4-6.4 6.4h-3.2c-32 16-51.2 41.6-57.6 76.8-3.2 19.2 0 35.2 9.6 51.2 6.4 16 19.2 28.8 35.2 38.4s32 16 51.2 16h67.2zM544 700.8c0 38.4 0 80 0 118.4 0 6.4 0 9.6 3.2 9.6 0 3.2 3.2 3.2 9.6 0 6.4 0 16 0 22.4 0 9.6 0 16 3.2 22.4 9.6s6.4 16 6.4 25.6c0 9.6-3.2 16-9.6 22.4-3.2 6.4-12.8 9.6-22.4 9.6-41.6 0-86.4 0-131.2 0-9.6 0-16-3.2-22.4-9.6-3.2-6.4-6.4-12.8-6.4-22.4s3.2-16 9.6-22.4c6.4-6.4 12.8-6.4 22.4-9.6 6.4 0 16 0 22.4 0 3.2 0 6.4 0 9.6 0 0 0 3.2-3.2 3.2-9.6v-236.8c0-3.2 0-6.4-3.2-9.6 0-3.2-3.2-3.2-9.6-3.2-48-6.4-89.6-25.6-128-51.2-35.2-25.6-64-60.8-83.2-102.4-22.4-41.6-32-83.2-32-128 0-48 9.6-92.8 32-134.4 28.8-54.4 70.4-96 124.8-124.8s112-38.4 172.8-28.8c51.2 6.4 96 25.6 134.4 57.6s70.4 70.4 89.6 115.2c19.2 44.8 25.6 96 19.2 147.2-3.2 41.6-19.2 80-41.6 118.4-22.4 35.2-51.2 64-86.4 89.6-35.2 22.4-73.6 38.4-115.2 44.8-3.2 0-6.4 3.2-9.6 3.2 0 3.2-3.2 3.2-3.2 9.6v112zM512 64c-38.4 0-70.4 9.6-102.4 25.6s-57.6 38.4-80 67.2-35.2 64-38.4 99.2c-6.4 35.2 0 70.4 9.6 108.8 0 3.2 3.2 6.4 3.2 6.4s3.2 0 6.4-3.2c35.2-22.4 70.4-32 105.6-28.8s67.2 19.2 96 48c25.6 22.4 54.4 38.4 86.4 44.8s60.8 0 92.8-12.8c6.4-3.2 9.6-6.4 12.8-9.6 19.2-35.2 32-70.4 32-108.8s-6.4-70.4-22.4-105.6c-16-32-38.4-60.8-67.2-83.2-32-22.4-64-38.4-105.6-41.6h-9.6c-6.4-6.4-12.8-6.4-19.2-6.4z" />
<glyph unicode="&#xe915;" glyph-name="test-tube" d="M928 6.4c-3.2-19.2-9.6-32-25.6-44.8-12.8-12.8-28.8-19.2-51.2-22.4-12.8-3.2-35.2-3.2-67.2-3.2h-604.8c-19.2 0-35.2 3.2-44.8 9.6-16 6.4-28.8 19.2-35.2 35.2s-6.4 35.2 0 54.4c3.2 12.8 9.6 25.6 16 35.2l224 416c3.2 6.4 6.4 12.8 6.4 19.2v96c0 3.2 0 6.4 0 6.4s-3.2 3.2-6.4 3.2c-19.2 0-32 9.6-44.8 19.2-16 16-22.4 32-22.4 48v16c0 16 0 28.8 0 35.2 3.2 16 12.8 28.8 22.4 38.4 12.8 9.6 25.6 16 41.6 16h336c19.2 0 35.2-6.4 48-19.2s19.2-28.8 19.2-48v-12.8c0-16 0-28.8-3.2-35.2-3.2-16-9.6-28.8-22.4-38.4s-25.6-16-38.4-16c-3.2 0-6.4-3.2-6.4-3.2s0-3.2 0-6.4v-99.2c0-3.2 3.2-9.6 6.4-16l243.2-419.2c9.6-22.4 12.8-44.8 9.6-64zM880 6.4c0 12.8-3.2 28.8-12.8 44.8l-96 176c-60.8 112-105.6 195.2-134.4 249.6v3.2c-3.2 6.4-6.4 9.6-6.4 12.8 0 48 0 99.2 0 147.2 0 3.2 3.2 6.4 9.6 6.4h32c9.6 0 16 3.2 22.4 9.6s9.6 16 9.6 25.6v32c0 9.6-3.2 16-9.6 22.4s-12.8 9.6-22.4 9.6c-6.4 0-19.2 0-32 0h-297.6c-12.8 0-19.2-3.2-25.6-9.6-6.4-3.2-9.6-12.8-9.6-22.4v-32c0-9.6 3.2-16 9.6-22.4s12.8-9.6 22.4-9.6h9.6c9.6 0 16 0 19.2 0s6.4 0 9.6-3.2c3.2-3.2 3.2-6.4 3.2-9.6v-137.6c0-6.4-3.2-16-6.4-22.4l-230.4-422.4c-6.4-12.8-12.8-25.6-12.8-35.2-3.2-25.6 6.4-41.6 32-44.8 6.4 0 12.8-3.2 25.6-3.2h640c12.8 0 22.4 3.2 32 6.4s19.2 12.8 19.2 28.8zM832 32c6.4-9.6 9.6-16 9.6-19.2s0-6.4-3.2-6.4c-3.2 0-9.6 0-19.2 0h-636.8c-9.6 0-12.8 0-16 3.2 0 3.2 0 6.4 3.2 12.8l153.6 278.4c3.2 3.2 3.2 6.4 6.4 9.6 3.2 0 6.4 0 9.6 0 19.2-6.4 44.8-12.8 76.8-16 28.8-3.2 54.4 6.4 76.8 25.6 9.6 9.6 22.4 22.4 38.4 41.6 19.2 22.4 44.8 41.6 73.6 57.6 3.2 0 6.4 3.2 9.6 0 3.2 0 3.2-3.2 6.4-6.4l211.2-380.8zM425.6 835.2c-9.6 6.4-12.8 16-12.8 28.8s3.2 22.4 12.8 28.8c6.4 6.4 16 12.8 28.8 12.8s22.4-3.2 28.8-12.8c9.6-9.6 12.8-19.2 12.8-28.8s-3.2-22.4-12.8-28.8c-9.6-9.6-19.2-12.8-28.8-12.8-12.8 0-22.4 3.2-28.8 12.8zM444.8 422.4c-9.6 9.6-16 22.4-16 38.4s6.4 28.8 16 38.4 22.4 16 38.4 16c16 0 28.8-6.4 38.4-16s16-22.4 16-38.4c0-16-6.4-28.8-16-38.4s-22.4-16-38.4-16c-16 0-28.8 6.4-38.4 16zM457.6 576c-12.8 12.8-22.4 32-22.4 51.2s6.4 38.4 22.4 51.2c16 19.2 32 25.6 54.4 25.6 19.2 0 38.4-6.4 51.2-22.4s22.4-32 22.4-51.2-6.4-38.4-22.4-51.2-32-22.4-51.2-22.4c-22.4 0-41.6 6.4-54.4 19.2zM572.8 108.8c6.4 9.6 6.4 22.4 3.2 32-3.2 12.8-9.6 19.2-22.4 25.6-9.6 6.4-22.4 6.4-32 3.2-12.8-3.2-19.2-9.6-25.6-19.2s-6.4-22.4-3.2-32c3.2-12.8 9.6-19.2 19.2-25.6s22.4-6.4 32-3.2c16 0 25.6 6.4 28.8 19.2zM528 899.2c-6.4 6.4-9.6 16-9.6 25.6s3.2 19.2 9.6 25.6 16 9.6 25.6 9.6c9.6 0 19.2-3.2 25.6-9.6s9.6-16 9.6-25.6c0-9.6-3.2-19.2-9.6-25.6s-16-9.6-25.6-12.8c-9.6 3.2-19.2 6.4-25.6 12.8zM678.4 208c6.4 12.8 6.4 25.6 3.2 38.4s-12.8 22.4-22.4 32c-12.8 6.4-25.6 9.6-38.4 6.4s-25.6-12.8-32-22.4c-6.4-12.8-9.6-25.6-6.4-38.4s12.8-22.4 25.6-32c12.8-6.4 25.6-9.6 38.4-3.2s25.6 6.4 32 19.2z" />
<glyph unicode="&#xe916;" glyph-name="twitter" d="M918.4 656v-28.8c0-70.4-12.8-140.8-38.4-211.2-28.8-70.4-64-134.4-115.2-192-54.4-60.8-115.2-105.6-185.6-140.8-76.8-35.2-163.2-54.4-256-54.4-118.4 3.2-227.2 35.2-323.2 96h3.2c22.4 0 35.2-3.2 48-3.2 48 0 96 6.4 140.8 22.4s86.4 38.4 121.6 67.2c-44.8 0-86.4 16-121.6 41.6s-60.8 60.8-73.6 102.4c12.8-3.2 25.6-3.2 38.4-3.2 19.2 0 38.4 3.2 57.6 6.4-48 9.6-89.6 35.2-121.6 73.6s-48 83.2-48 134.4v3.2c28.8-16 60.8-25.6 96-25.6-28.8 19.2-51.2 44.8-67.2 76.8s-25.6 64-25.6 99.2 9.6 70.4 28.8 105.6c54.4-64 115.2-115.2 192-153.6s156.8-60.8 243.2-64c-3.2 12.8-3.2 28.8-3.2 48 0 38.4 9.6 73.6 28.8 105.6s44.8 57.6 76.8 76.8c32 19.2 67.2 28.8 105.6 28.8 28.8 0 57.6-6.4 83.2-16 25.6-12.8 51.2-28.8 67.2-48 48 9.6 92.8 25.6 134.4 51.2-19.2-32-28.8-54.4-44.8-73.6s-35.2-35.2-57.6-48c44.8 6.4 86.4 16 121.6 35.2-28.8-44.8-64-83.2-105.6-112z" />
<glyph unicode="&#xe917;" glyph-name="youtube" d="M931.2 448c28.8-16 51.2-38.4 67.2-67.2s25.6-60.8 25.6-92.8v-150.4c0-35.2-9.6-64-25.6-92.8s-38.4-51.2-67.2-67.2c-28.8-16-60.8-25.6-92.8-25.6h-649.6c-35.2 0-64 9.6-92.8 25.6s-51.2 38.4-67.2 67.2-28.8 54.4-28.8 89.6v150.4c0 35.2 9.6 64 25.6 92.8s38.4 51.2 67.2 70.4c28.8 16 60.8 25.6 92.8 25.6h649.6c35.2-3.2 67.2-9.6 96-25.6zM323.2 406.4h-179.2v-51.2h60.8v-300.8h57.6v300.8h60.8v51.2zM272 716.8l-80 230.4h67.2l41.6-153.6h3.2l41.6 153.6h70.4l-76.8-227.2v-160h-64v156.8zM496 313.6h-51.2v-195.2c-3.2-3.2-9.6-9.6-16-12.8-3.2-3.2-9.6-6.4-12.8-6.4-6.4 0-9.6 0-9.6 3.2-3.2 3.2-3.2 6.4-3.2 12.8v198.4h-51.2v-217.6c0-16 3.2-25.6 9.6-35.2 6.4-6.4 16-12.8 25.6-12.8 12.8 0 22.4 3.2 32 9.6s19.2 12.8 28.8 22.4v-28.8h51.2v262.4zM441.6 576c-16 12.8-22.4 32-22.4 57.6v147.2c0 22.4 6.4 38.4 22.4 54.4 16 12.8 38.4 19.2 64 19.2s44.8-6.4 60.8-22.4c16-12.8 22.4-32 22.4-54.4v-147.2c0-22.4-6.4-41.6-22.4-57.6-16-12.8-38.4-19.2-64-19.2s-44.8 9.6-60.8 22.4zM480 627.2c0-6.4 3.2-12.8 6.4-19.2 3.2-3.2 9.6-6.4 16-6.4s12.8 3.2 19.2 6.4c6.4 3.2 9.6 9.6 9.6 16v160c0 6.4-3.2 9.6-6.4 16-6.4 3.2-9.6 6.4-19.2 6.4-6.4 0-12.8-3.2-19.2-6.4-6.4-6.4-6.4-9.6-6.4-16v-156.8zM681.6 252.8c0 22.4-3.2 38.4-12.8 48s-22.4 16-38.4 16c-9.6 0-16-3.2-22.4-6.4s-16-9.6-22.4-19.2v115.2h-51.2v-352h51.2v19.2c3.2-6.4 12.8-12.8 22.4-16 6.4-3.2 16-6.4 25.6-6.4 16 0 25.6 6.4 35.2 16s12.8 25.6 12.8 41.6v144zM624 268.8c3.2-3.2 6.4-12.8 6.4-19.2v-134.4c0-9.6 0-16-3.2-19.2s-6.4-6.4-12.8-6.4c-3.2 0-6.4 0-9.6 3.2h-3.2c-3.2 0-6.4 3.2-12.8 9.6v160c0 3.2 3.2 3.2 9.6 6.4h3.2c3.2 3.2 6.4 3.2 12.8 3.2 0 3.2 3.2 0 9.6-3.2zM646.4 569.6c-6.4 9.6-9.6 22.4-9.6 38.4v240h57.6v-217.6c0-6.4 0-9.6 3.2-12.8s6.4-6.4 9.6-6.4c3.2 0 9.6 3.2 16 6.4s12.8 9.6 16 16v214.4h57.6v-284.8h-57.6v32c-9.6-12.8-22.4-19.2-32-25.6-12.8-6.4-22.4-9.6-35.2-9.6-9.6-3.2-19.2 3.2-25.6 9.6zM860.8 243.2c0 25.6-6.4 44.8-19.2 57.6s-32 19.2-54.4 19.2c-22.4 0-41.6-6.4-57.6-22.4-12.8-12.8-22.4-32-22.4-54.4v-115.2c0-25.6 6.4-44.8 19.2-60.8 12.8-12.8 32-19.2 54.4-19.2 25.6 0 44.8 6.4 57.6 19.2s19.2 32 19.2 60.8v12.8h-54.4v-12.8c0-12.8-3.2-22.4-6.4-28.8-3.2-3.2-9.6-6.4-19.2-6.4s-12.8 3.2-16 9.6c-3.2 6.4-6.4 16-6.4 28.8v48h99.2v64zM803.2 268.8c3.2-3.2 6.4-12.8 6.4-22.4v-25.6h-44.8v25.6c0 9.6 3.2 19.2 6.4 22.4s9.6 6.4 19.2 6.4 9.6-3.2 12.8-6.4z" />
<glyph unicode="&#xe918;" glyph-name="envelope" d="M9.6 617.6c0 0-3.2 3.2-6.4 6.4s-3.2 3.2-3.2 6.4v96c0 6.4 3.2 16 9.6 19.2 6.4 6.4 12.8 9.6 19.2 9.6h966.4c9.6 0 16-3.2 22.4-9.6 3.2-3.2 6.4-9.6 6.4-19.2v-32c0-32 0-54.4 0-64 0-6.4-3.2-9.6-9.6-12.8l-492.8-243.2c-3.2 0-6.4 0-9.6 0s-6.4 0-9.6 3.2c-163.2 80-288 140.8-368 179.2l-124.8 60.8zM524.8 288c179.2 89.6 336 166.4 470.4 233.6 6.4 3.2 12.8 3.2 19.2 0s6.4-9.6 6.4-16v-464c0-6.4-3.2-16-9.6-19.2-6.4-6.4-12.8-9.6-19.2-9.6h-963.2c-6.4 0-16 3.2-19.2 9.6-6.4 3.2-9.6 12.8-9.6 19.2v464c0 6.4 3.2 12.8 6.4 16 6.4 3.2 9.6 3.2 19.2 0 44.8-22.4 169.6-83.2 380.8-185.6 44.8-22.4 76.8-38.4 96-48 9.6-3.2 16-3.2 22.4 0z" />
</font>
</defs>
</svg>
