<?xml version="1.0" encoding="utf-8"?>
<!-- Generator: Adobe Illustrator 19.0.0, SVG Export Plug-In . SVG Version: 6.00 Build 0)  -->
<svg version="1.1" id="Capa_1" xmlns="http://www.w3.org/2000/svg" xmlns:xlink="http://www.w3.org/1999/xlink" x="0px" y="0px"
	 viewBox="0 0 680.3 141.7" style="enable-background:new 0 0 680.3 141.7;" xml:space="preserve">
<style type="text/css">
	.st0{fill-rule:evenodd;clip-rule:evenodd;fill:#291770;}
	.st1{fill-rule:evenodd;clip-rule:evenodd;fill:#E43024;}
</style>
<g>
	<path class="st0" d="M174.2,0H38.9l14.9,18.8c4.2-3.1,8.9-5.5,14.1-7.3c6.2-2.1,13-3.2,20.3-3.2c7.6,0,14.5,1,20.6,3.1
		c6.1,2.1,11.6,5.3,16.5,9.5c5.6,4.9,9.8,10.3,12.6,16.3c2.8,6,4.2,12.5,4.2,19.6c0,8.3-2,16-6,23c-4,7.1-9.6,12.8-17,17.3
		c-0.7,0.5-1.5,0.9-2.3,1.4l17,21.5c0.9,0.2,1.7,0.3,2.4,0.3c0.8,0,1.6-0.1,2.4-0.2c0.8-0.1,1.6-0.4,2.3-0.7l0.1,1.6
		c-1.5,0.9-3,1.7-4.5,2.5l9.1,11.5L174.2,0L174.2,0z M64.5,32.3c1-3.3,2.2-6.2,3.6-8.6c4.3-7.1,11-10.7,20.2-10.7
		c9.1,0,15.8,3.6,20.2,10.8c4.4,7.2,6.6,18.3,6.6,33.3c0,14-1.9,24.6-5.8,31.9L64.5,32.3z"/>
	<path class="st1" d="M30.9,6.6L2.5,141.7h135.3l-10.7-13.6c-1.2,0.5-2.3,0.9-3.5,1.4c-5.6,2.1-10.9,3.3-15.8,3.8
		c-1.8-0.3-4.2-1.2-7.3-2.8c-3.1-1.5-7.1-3.8-11.9-6.9c-1.1-0.7-2.5-1.6-4.4-2.8c-6.2-4.1-10.8-6.1-13.8-6.1c-1.6,0-3.2,0.4-4.8,1.1
		c-1.6,0.7-3.6,2-5.9,3.8l-2.1-4.9c3.1-2,6.7-3.8,10.7-5.2c4-1.5,8.5-2.8,13.5-3.9c-14.6-1.9-26.1-7.3-34.5-16
		C38.8,80.8,34.6,69.9,34.6,57c0-7.2,1.4-13.8,4.2-19.9c1.9-4,4.3-7.8,7.4-11.2L30.9,6.6L30.9,6.6z M115.1,113.1
		c-4.4-1.7-8.2-3.1-11.6-4.2c-4.7-1.5-9.1-2.5-13.1-3.1c5.2,0,10.1-0.7,14.9-2.1c0.6-0.2,1.3-0.4,1.9-0.6L115.1,113.1L115.1,113.1z
		 M102.5,97.1c-3.8,2.9-8.6,4.3-14.2,4.3c-9.1,0-15.8-3.6-20.1-10.8c-4.3-7.2-6.5-18.4-6.5-33.5c0-4,0.2-7.7,0.5-11.1L102.5,97.1z"
		/>
	<path class="st0" d="M604.7,105.8v-1.1c3.4-1.6,7.5-4.6,12.4-9.3c4.9-4.6,10.4-10.6,16.5-18.1l-12.3-19c-3-4.6-5.5-8-7.4-9.9
		c-1.9-2-3.8-3.4-5.8-4.1v-1.2c2.6,0.1,5.1,0.2,7.6,0.3c2.5,0.1,4.8,0.1,7.1,0.1c2.5,0,5.1,0,8-0.1c2.8-0.1,5.7-0.2,8.7-0.3v1.2
		c-1.7,0.3-2.9,0.9-3.7,1.6c-0.8,0.7-1.2,1.6-1.2,2.7c0,0.8,0.2,1.8,0.7,2.9c0.4,1.1,1.1,2.3,2,3.6l6.8,10c3.3-4,5.7-7.2,7.1-9.6
		c1.4-2.4,2.1-4.3,2.1-5.8c0-1.4-0.5-2.5-1.4-3.4c-0.9-0.9-2.3-1.6-4.1-2v-1.2c2.1,0.1,4.2,0.2,6.2,0.3c2,0.1,3.9,0.1,5.7,0.1
		c2,0,4.1,0,6.3-0.1c2.2-0.1,4.6-0.2,7-0.3v1.2c-3.1,0.9-6.7,3.2-10.9,6.8c-4.1,3.6-9.5,9.3-16.1,16.9l12.6,18.3
		c3.9,5.7,7.2,9.9,9.8,12.6c2.6,2.7,5.2,4.6,7.7,5.7l0,1.1c-3.2-0.1-6.3-0.2-9.2-0.2c-2.9,0-5.7-0.1-8.2-0.1c-2.7,0-5.7,0-8.8,0.1
		c-3.1,0-6.4,0.1-9.8,0.2l0-1.1c1.7-0.5,3-1.3,3.9-2.2c0.9-0.9,1.4-2,1.4-3.2c0-1.3-0.4-3-1.4-5.1c-0.9-2.1-2.1-4.4-3.7-6.7
		l-4.6-6.9l-0.5,0.7C628.4,90.2,625,96,625,98.8c0,1.4,0.5,2.7,1.5,3.6c1,1,2.5,1.8,4.4,2.3v1.1c-2.6-0.1-5.2-0.2-7.5-0.2
		c-2.4,0-4.6-0.1-6.7-0.1c-1.8,0-3.8,0-5.8,0.1C609,105.7,606.9,105.8,604.7,105.8z"/>
	<path class="st0" d="M539.5,105.8v-1.2c2.6-0.6,4.4-2,5.4-4.4c0.9-2.3,1.4-7.8,1.4-16.4V52.1c0-2.2-0.4-3.8-1.3-5
		c-0.9-1.2-2.3-2-4.4-2.5v-1.3h0.6c6.6,0.1,11.6,0.2,14.9,0.2h39.7l5.3,16l-1.4,0.4c-4-4.5-8.5-7.8-13.6-9.9
		c-5.1-2.1-11-3.2-17.8-3.2c-1.6,0-2.7,0-3.5,0c-0.8,0-1.5,0.1-2.1,0.2v24c1.1,0.1,2.1,0.1,3.1,0.1c1,0,2,0,3,0
		c5.6,0,10.3-0.9,13.9-2.7c3.7-1.8,6-4.4,7-7.6h1.3v23.8h-1.3c-1.1-3.4-3.4-6-7-7.8c-3.6-1.8-8.3-2.7-14.1-2.7c-1.6,0-2.8,0-3.6,0
		c-0.8,0-1.6,0.1-2.3,0.1v8.6c0,8.7,0.7,14.1,2.1,16.2c1.4,2.1,4.4,3.1,9,3.1c5.7,0,11-1.4,16-4.3c4.9-2.9,9.6-7.2,14-13.1l1.6,0.6
		l-6.1,20.2h-39.5c-0.7,0-1.7,0-3.2,0c-1.4,0-2.5,0-3.2,0c-2.5,0-4.9,0-7.3,0.1C543.9,105.6,541.6,105.7,539.5,105.8z"/>
	<path class="st0" d="M475.5,43.4c2.6,0,5.2,0.1,7.9,0.1c2.7,0,6.4,0,11,0h6.7c6.8,0,11.9,0.2,15.5,0.5c3.5,0.4,6.7,0.9,9.3,1.8
		c3.9,1.2,6.9,3,9,5.4c2.2,2.4,3.3,5.3,3.3,8.4c0,5.2-3,9.3-8.9,12.4c-5.9,3.1-14,4.6-24.2,4.6c-1,0-2.1-0.1-3.4-0.1
		c-1.3,0-2.8-0.1-4.5-0.2v7.5c0,8.2,0.5,13.5,1.5,16c1,2.5,2.8,4.1,5.5,4.7l0,1.2c-2-0.1-4.2-0.2-6.4-0.2c-2.2,0-5.2-0.1-8.9-0.1
		c-3.6,0-6.4,0-8.5,0.1c-2.1,0-4.1,0.1-6,0.2v-1.2c2.6-0.6,4.4-2,5.4-4.4c0.9-2.3,1.4-7.8,1.4-16.4V52.1c0-2.2-0.4-3.8-1.3-5
		c-0.8-1.2-2.3-2-4.4-2.5L475.5,43.4L475.5,43.4z M497.2,72.7c0.9,0.2,1.9,0.3,2.8,0.4c0.9,0.1,1.9,0.1,2.9,0.1
		c5.5,0,9.7-1.2,12.6-3.5c2.9-2.4,4.4-5.7,4.4-10.1c0-4.4-1.5-7.6-4.6-9.7c-3-2.1-7.7-3.2-14-3.2c-0.7,0-1.8,0-3.3,0.1
		c-0.3,0-0.6,0-0.8,0V72.7z"/>
	<path class="st0" d="M401.7,77.3c0,9.2,0.8,15.7,2.3,19.6c1.5,3.8,4.1,6.4,7.9,7.8v1.2c-2.3-0.1-4.5-0.2-6.3-0.2
		c-1.9,0-3.5-0.1-5-0.1c-1.8,0-3.7,0-5.7,0.1c-2,0-4.1,0.1-6.2,0.2l0-1.1c3.5-1.5,5.9-4.3,7.4-8.4c1.5-4.1,2.2-10.5,2.2-19V58.4
		c0-5-0.5-8.4-1.4-10.1c-0.9-1.7-2.6-3-5.1-3.8v-1.2c3.2,0.1,5.7,0.1,7.6,0.1c1.9,0,3.6,0,5.1,0c1,0,2.6,0,4.6,0c2,0,3.6,0,4.6,0
		c3.5,7.1,6.8,13.8,10.2,20.1c3.3,6.3,6.7,12.3,10,18.1l15.1-38.3c2.3,0.1,4.1,0.1,5.3,0.1c1.2,0,2.3,0,3.3,0c1.5,0,3.2,0,5-0.1
		c1.8,0,4.5-0.2,8.2-0.3l0,1.3c-2,0.4-3.5,1.1-4.4,2.3c-0.9,1.2-1.4,2.9-1.4,5.2v32c0,8.2,0.5,13.6,1.5,16.1c1,2.5,2.8,4.1,5.4,4.6
		v1.2c-2-0.1-4.1-0.2-6.3-0.2c-2.2,0-5.1-0.1-8.7-0.1c-3.5,0-6.3,0-8.5,0.1c-2.1,0-4.2,0.1-6.2,0.2l0-1.2c2.6-0.5,4.3-1.9,5.3-4.1
		c1-2.2,1.5-7.7,1.5-16.6V52.5l-21.5,54.9h-0.8c-3.8-8.5-7.7-17.3-11.8-26.3c-4.1-9-8.5-18.2-13.1-27.8V77.3z"/>
	<path class="st0" d="M381.2,83.9c0,8.3,0.5,13.7,1.5,16.1c1,2.4,2.9,4,5.7,4.6v1.2c-2.1-0.1-4.3-0.2-6.6-0.2
		c-2.3,0-5.4-0.1-9.2-0.1c-3.6,0-6.5,0-8.6,0.1c-2.2,0-4.2,0.1-6.2,0.2v-1.2c2.7-0.6,4.6-2.1,5.6-4.4c1-2.3,1.5-7.8,1.5-16.3v-32
		c0-2.2-0.4-3.8-1.3-5c-0.9-1.1-2.4-2-4.5-2.5v-1.3c2.2,0.1,4.4,0.2,6.7,0.3c2.3,0.1,4.6,0.1,6.9,0.1c2.5,0,4.9,0,7.3-0.1
		c2.4-0.1,4.8-0.2,7.3-0.3v1.3c-2.1,0.4-3.6,1.2-4.6,2.4c-0.9,1.2-1.4,2.9-1.4,5.1V83.9z"/>
	<path class="st0" d="M284.8,77.3c0,9.2,0.7,15.7,2.3,19.6c1.5,3.8,4.1,6.4,7.9,7.8v1.2c-2.3-0.1-4.5-0.2-6.3-0.2
		c-1.9,0-3.5-0.1-5-0.1c-1.8,0-3.7,0-5.7,0.1c-2,0-4.1,0.1-6.2,0.2l0-1.1c3.5-1.5,5.9-4.3,7.4-8.4c1.5-4.1,2.2-10.5,2.2-19V58.4
		c0-5-0.5-8.4-1.4-10.1c-0.9-1.7-2.6-3-5.1-3.8v-1.2c3.2,0.1,5.7,0.1,7.6,0.1c1.9,0,3.6,0,5.1,0c1,0,2.6,0,4.6,0c2,0,3.6,0,4.6,0
		c3.5,7.1,6.8,13.8,10.2,20.1c3.3,6.3,6.7,12.3,10,18.1L332,43.3c2.3,0.1,4.1,0.1,5.3,0.1c1.2,0,2.3,0,3.3,0c1.5,0,3.2,0,5-0.1
		c1.8,0,4.5-0.2,8.2-0.3l0,1.3c-2,0.4-3.5,1.1-4.4,2.3c-0.9,1.2-1.4,2.9-1.4,5.2v32c0,8.2,0.5,13.6,1.5,16.1c1,2.5,2.8,4.1,5.4,4.6
		v1.2c-2-0.1-4.1-0.2-6.3-0.2c-2.2,0-5.1-0.1-8.7-0.1c-3.5,0-6.3,0-8.5,0.1c-2.1,0-4.2,0.1-6.2,0.2l0-1.2c2.6-0.5,4.3-1.9,5.3-4.1
		c1-2.2,1.5-7.7,1.5-16.6V52.5l-21.5,54.9h-0.8c-3.8-8.5-7.7-17.3-11.8-26.3c-4.1-9-8.5-18.2-13.1-27.8V77.3z"/>
	<path class="st0" d="M264.3,83.9c0,8.3,0.5,13.7,1.5,16.1c1,2.4,2.9,4,5.7,4.6v1.2c-2.1-0.1-4.3-0.2-6.6-0.2
		c-2.3,0-5.4-0.1-9.2-0.1c-3.6,0-6.5,0-8.6,0.1c-2.2,0-4.2,0.1-6.2,0.2v-1.2c2.7-0.6,4.6-2.1,5.6-4.4c1-2.3,1.5-7.8,1.5-16.3v-32
		c0-2.2-0.4-3.8-1.3-5c-0.9-1.1-2.4-2-4.5-2.5v-1.3c2.2,0.1,4.4,0.2,6.7,0.3c2.3,0.1,4.6,0.1,6.9,0.1c2.5,0,5,0,7.3-0.1
		c2.4-0.1,4.8-0.2,7.3-0.3v1.3c-2.1,0.4-3.6,1.2-4.6,2.4c-0.9,1.2-1.4,2.9-1.4,5.1V83.9z"/>
	<path class="st0" d="M191,72.7c0,5.5,0.1,10,0.4,13.4c0.3,3.4,0.8,5.9,1.4,7.4c1.2,3.2,3.2,5.6,5.9,7.2c2.7,1.6,6,2.4,10,2.4
		c6.4,0,11.3-1.9,14.6-5.7c3.4-3.8,5-9.3,5-16.5v-9.2c0-10.4-0.7-17.2-2.3-20.4c-1.5-3.3-4.2-5.6-8.2-6.9l0-1.2
		c2.5,0.1,4.6,0.2,6.5,0.2c1.9,0,3.5,0.1,4.9,0.1c1.8,0,3.8,0,6-0.1c2.2,0,4.5-0.1,7-0.2l0,1.1c-4,1.3-6.8,3.6-8.3,6.9
		c-1.5,3.3-2.3,10.1-2.3,20.5v8.7c0,9.2-2.3,16-6.9,20.4c-4.6,4.4-11.7,6.6-21.3,6.6c-5.3,0-9.8-0.5-13.6-1.6
		c-3.8-1.1-6.9-2.7-9.3-4.9c-2.3-2.1-3.8-4.6-4.8-7.6c-1-3-1.4-7.3-1.4-13c0-2.3,0-5,0.1-8.1c0.1-3.1,0.1-5.2,0.1-6.1V51.9
		c0-2.2-0.4-3.8-1.3-5c-0.9-1.1-2.4-2-4.4-2.5v-1.3c2.1,0.1,4.3,0.2,6.5,0.3c2.2,0.1,4.5,0.1,6.9,0.1c2.5,0,4.9,0,7.2-0.1
		c2.3-0.1,4.7-0.2,7-0.3v1.3c-2,0.4-3.5,1.2-4.4,2.3c-0.9,1.2-1.4,2.9-1.4,5.2V72.7z"/>
	<path class="st1" d="M241.8,140.9v-23.8h4v23.8H241.8L241.8,140.9z M261.3,121.4c0.1,0.5,0.1,1,0.1,1.5c0,0.5,0,1.2,0,2v16h-3.4
		v-23.8h3.2l11.5,15.5l10.8-15.5h3.6v23.8h-3.6v-16c0-0.2,0-0.7,0.1-1.6c0.1-0.8,0.1-1.5,0.1-1.9c-0.3,0.6-0.6,1.1-0.8,1.6
		c-0.2,0.4-0.4,0.8-0.6,1l-9.1,13.2h-1l-9.4-12.9c0,0-0.1-0.1-0.1-0.2C262.1,123.2,261.6,122.3,261.3,121.4L261.3,121.4z
		 M317.2,120.2h-13.6v8.3h13.6c1,0,1.6-0.2,2-0.6c0.4-0.4,0.5-1,0.5-1.9v-3.3c0-0.9-0.2-1.6-0.5-1.9
		C318.9,120.4,318.2,120.2,317.2,120.2L317.2,120.2z M299.6,140.9v-23.8h19.1c1.8,0,3.1,0.4,3.9,1.1c0.8,0.7,1.2,1.9,1.2,3.5v5.3
		c0,1.6-0.4,2.8-1.2,3.5c-0.8,0.7-2.1,1.1-3.9,1.1h-15.2v9.3H299.6L299.6,140.9z M337.1,137.6h19.7v-17.2h-19.7V137.6L337.1,137.6z
		 M333.2,122.8c0-2.2,0.4-3.6,1.2-4.4c0.8-0.8,2.3-1.2,4.4-1.2h16.4c2.1,0,3.6,0.4,4.4,1.2c0.8,0.8,1.2,2.3,1.2,4.4v12.5
		c0,2.2-0.4,3.7-1.2,4.5c-0.8,0.8-2.2,1.2-4.4,1.2h-16.4c-2.2,0-3.6-0.4-4.4-1.2c-0.8-0.8-1.2-2.3-1.2-4.4V122.8L333.2,122.8z
		 M390.4,120.2h-13.6v8.3h13.6c1,0,1.7-0.2,2-0.5c0.4-0.4,0.5-1,0.5-1.9v-3.5c0-0.9-0.2-1.5-0.6-1.9
		C392,120.4,391.3,120.2,390.4,120.2L390.4,120.2z M372.8,140.9v-23.8h19.1c1.8,0,3.1,0.4,3.8,1.1c0.8,0.7,1.2,1.9,1.2,3.5v5.3
		c0,1.6-0.4,2.8-1.2,3.5c-0.8,0.7-2.1,1.1-3.8,1.1h-3.5l10.9,9.3h-5.9l-9.7-9.3h-7v9.3H372.8L372.8,140.9z M417,120.4v20.5h-4v-20.5
		h-10.9v-3.2h25.7v3.2H417L417,120.4z M448.3,130.3v-3.4h10v3.4H448.3L448.3,130.3z M484.2,140.9v-23.8h22.9v3.2h-18.9v6.6h11.6v3.1
		h-11.6v7.5h19.1v3.3H484.2L484.2,140.9z M513.3,140.9l11.5-12.2l-11.7-11.5h5.7l8.3,9l7.8-9h4.9l-10.4,11.1l12.7,12.6h-5.7
		l-9.4-10.1l-8.7,10.1H513.3L513.3,140.9z M567.1,120.2h-13.6v8.3h13.6c1,0,1.6-0.2,2-0.6c0.4-0.4,0.6-1,0.6-1.9v-3.3
		c0-0.9-0.2-1.6-0.6-1.9C568.8,120.4,568.1,120.2,567.1,120.2L567.1,120.2z M549.5,140.9v-23.8h19.2c1.8,0,3.1,0.4,3.8,1.1
		c0.8,0.7,1.2,1.9,1.2,3.5v5.3c0,1.6-0.4,2.8-1.2,3.5c-0.8,0.7-2.1,1.1-3.8,1.1h-15.2v9.3H549.5L549.5,140.9z M587,137.6h19.7v-17.2
		H587V137.6L587,137.6z M583.1,122.8c0-2.2,0.4-3.6,1.2-4.4c0.8-0.8,2.2-1.2,4.4-1.2h16.4c2.1,0,3.6,0.4,4.4,1.2
		c0.8,0.8,1.2,2.3,1.2,4.4v12.5c0,2.2-0.4,3.7-1.2,4.5c-0.8,0.8-2.2,1.2-4.4,1.2h-16.4c-2.2,0-3.6-0.4-4.4-1.2
		c-0.8-0.8-1.2-2.3-1.2-4.4V122.8L583.1,122.8z M640.3,120.2h-13.6v8.3h13.6c1,0,1.7-0.2,2-0.5c0.4-0.4,0.5-1,0.5-1.9v-3.5
		c0-0.9-0.2-1.5-0.6-1.9C641.9,120.4,641.2,120.2,640.3,120.2L640.3,120.2z M622.7,140.9v-23.8h19.1c1.8,0,3.1,0.4,3.9,1.1
		c0.8,0.7,1.2,1.9,1.2,3.5v5.3c0,1.6-0.4,2.8-1.2,3.5c-0.8,0.7-2.1,1.1-3.9,1.1h-3.5l10.9,9.3h-5.9l-9.7-9.3h-7v9.3H622.7
		L622.7,140.9z M666.9,120.4v20.5h-4v-20.5h-10.9v-3.2h25.7v3.2H666.9z"/>
</g>
</svg>
